<?xml version="1.0" encoding="iso-8859-1"?>
<!-- Generator: Adobe Illustrator 19.1.0, SVG Export Plug-In . SVG Version: 6.00 Build 0)  -->
<svg xmlns="http://www.w3.org/2000/svg" xmlns:xlink="http://www.w3.org/1999/xlink" version="1.1" id="Capa_1" x="0px" y="0px" viewBox="0 0 334.623 334.623" style="enable-background:new 0 0 334.623 334.623;" xml:space="preserve" width="512px" height="512px">
<g>
	<path d="M175.329,287.017C175.322,287.017,175.329,287.017,175.329,287.017c-38.053,0-79.481-1.202-123.125-3.554   c-25.784-1.414-45.785-21.292-48.632-48.349c-4.762-45.2-4.762-90.83,0-135.625c2.841-26.832,22.815-46.71,48.574-48.33   c75.271-4.737,152.721-4.737,230.312,0c26.061,1.581,45.586,20.99,48.6,48.304c4.749,43.246,4.756,88.87,0.006,135.632   c-2.744,27.038-22.25,46.472-48.535,48.356C249.45,285.815,213.382,287.017,175.329,287.017z M166.428,60.452   c-37.931,0-76.113,1.195-113.485,3.541c-19.685,1.234-34.39,16.048-36.594,36.851c-4.666,43.895-4.666,88.613,0,132.926   c2.204,20.971,16.89,35.778,36.543,36.858c43.413,2.339,84.609,3.535,122.425,3.535c37.751,0,73.51-1.189,106.287-3.528   c19.833-1.427,34.57-16.228,36.659-36.839c4.666-45.862,4.666-90.58,0.006-132.926c-2.294-20.868-17.005-35.688-36.594-36.877   C243.145,61.641,204.365,60.452,166.428,60.452z M134.576,121.783v88.208l84.706-43.805L134.576,121.783z" fill="#FFFFFF"/>
</g>
<g>
</g>
<g>
</g>
<g>
</g>
<g>
</g>
<g>
</g>
<g>
</g>
<g>
</g>
<g>
</g>
<g>
</g>
<g>
</g>
<g>
</g>
<g>
</g>
<g>
</g>
<g>
</g>
<g>
</g>
</svg>
